<svg id="Group_73" data-name="Group 73" xmlns="http://www.w3.org/2000/svg" width="133.632" height="158.614" viewBox="0 0 133.632 158.614">
  <g id="Group_40" data-name="Group 40" transform="translate(0 37.04)">
    <g id="Group_39" data-name="Group 39">
      <path id="Path_3" data-name="Path 3" d="M66.816,165.312a66.754,66.754,0,0,1-38.87-121.1,2.491,2.491,0,1,1,2.879,4.065,61.826,61.826,0,1,0,79.688,94,61.367,61.367,0,0,0,18.122-43.7,62.528,62.528,0,0,0-7.029-28.708,63.186,63.186,0,0,0-18.8-21.594,2.491,2.491,0,1,1,2.879-4.065A67.963,67.963,0,0,1,126.01,67.5a66.737,66.737,0,0,1-59.194,97.81Z" transform="translate(0 -43.739)" fill="#fdb916"/>
    </g>
  </g>
  <g id="Group_45" data-name="Group 45" transform="translate(35.684)">
    <g id="Group_42" data-name="Group 42" transform="translate(0 1.186)">
      <g id="Group_41" data-name="Group 41">
        <path id="Path_4" data-name="Path 4" d="M75.217,27.991a34.151,34.151,0,0,0-11.94-17.022C57.264,6.227,50.32,4.195,43.376,1.4,42.191,12.155,40.412,25.874,46,35.782A29.779,29.779,0,0,0,60.567,48.738a28.673,28.673,0,0,0,6.859,1.948,6,6,0,0,0,1.186.085A81.911,81.911,0,0,0,53.623,20.793a1.448,1.448,0,0,1,2.286-1.778A86.8,86.8,0,0,1,71.491,50.432,7.6,7.6,0,0,0,74.371,48.4C79.452,42.472,75.3,28.076,75.217,27.991Z" transform="translate(-42.138 -1.4)" fill="#fdb916"/>
      </g>
    </g>
    <g id="Group_44" data-name="Group 44" transform="translate(37.246)">
      <g id="Group_43" data-name="Group 43">
        <path id="Path_5" data-name="Path 5" d="M111,0s-5.166,2.2-5.589,2.371c-6.436,2.879-14.4,6.605-17.191,13.3a29.7,29.7,0,0,0-1.778,15.667,1.074,1.074,0,0,0,.085.508c.254,2.032.593,4.742,2.879,6.182.085.085.169.085.254.169a36.267,36.267,0,0,1,9.061-21.764,1.561,1.561,0,0,1,2.117-.169,1.463,1.463,0,0,1,.169,2.032A33,33,0,0,0,92.624,38.7a8.835,8.835,0,0,0,1.778-.423,24.846,24.846,0,0,0,9.4-6.1l1.1-1.1C112.779,22.357,111,0,111,0Z" transform="translate(-86.12)" fill="#fdb916"/>
      </g>
    </g>
  </g>
  <g id="Group_47" data-name="Group 47" transform="translate(9.485 45.634)">
    <g id="Group_46" data-name="Group 46">
      <path id="Path_6" data-name="Path 6" d="M68.531,158.144A57.248,57.248,0,0,1,11.2,100.813a58.282,58.282,0,0,1,6.521-26.675A57.4,57.4,0,0,1,35.166,54.152a1.27,1.27,0,1,1,1.524,2.032,54.771,54.771,0,0,0-22.949,44.629A54.851,54.851,0,0,0,107.4,139.6a54.586,54.586,0,0,0,16.09-38.785,54.771,54.771,0,0,0-22.949-44.629,1.27,1.27,0,0,1,1.524-2.032A57.334,57.334,0,0,1,68.531,158.144Z" transform="translate(-11.2 -53.887)" fill="#fdb916"/>
    </g>
  </g>
  <g id="Group_72" data-name="Group 72" transform="translate(30.656 71.389)">
    <g id="Group_56" data-name="Group 56">
      <g id="Group_49" data-name="Group 49" transform="translate(0 1.27)">
        <g id="Group_48" data-name="Group 48">
          <path id="Path_7" data-name="Path 7" d="M39.926,114.847V92.49H36.2V89.441a5.941,5.941,0,0,0,2.964-1.186A6.219,6.219,0,0,0,41.2,85.8h3.049v29.047Z" transform="translate(-36.2 -85.8)" fill="#fdb916"/>
        </g>
      </g>
      <g id="Group_51" data-name="Group 51" transform="translate(13.549 0.932)">
        <g id="Group_50" data-name="Group 50">
          <path id="Path_8" data-name="Path 8" d="M66.088,108.18a6.946,6.946,0,0,1-11.856,4.912A6.647,6.647,0,0,1,52.2,108.18V92.344a6.946,6.946,0,0,1,11.856-4.912,6.647,6.647,0,0,1,2.032,4.912ZM61.515,92.259a2.541,2.541,0,0,0-5.081,0V108.1a2.541,2.541,0,0,0,5.081,0Z" transform="translate(-52.2 -85.4)" fill="#fdb916"/>
        </g>
      </g>
      <g id="Group_53" data-name="Group 53" transform="translate(32.857 0.932)">
        <g id="Group_52" data-name="Group 52">
          <path id="Path_9" data-name="Path 9" d="M88.888,108.18a6.944,6.944,0,1,1-13.888,0V92.344a6.944,6.944,0,1,1,13.888,0ZM84.315,92.259a2.541,2.541,0,0,0-5.081,0V108.1a2.541,2.541,0,0,0,5.081,0Z" transform="translate(-75 -85.4)" fill="#fdb916"/>
        </g>
      </g>
      <g id="Group_55" data-name="Group 55" transform="translate(51.319)">
        <g id="Group_54" data-name="Group 54">
          <path id="Path_10" data-name="Path 10" d="M104.083,96.24a3.22,3.22,0,0,1-1.1,2.541,3.671,3.671,0,0,1-2.54,1.1,3.22,3.22,0,0,1-2.541-1.1,3.52,3.52,0,0,1-1.1-2.541v-8.3A3.22,3.22,0,0,1,97.9,85.4a3.672,3.672,0,0,1,2.541-1.1,3.22,3.22,0,0,1,2.54,1.1,3.671,3.671,0,0,1,1.1,2.541Zm-3.3,18.885H98.24l14.82-30.74H115.6ZM99.086,96.24a1.356,1.356,0,0,0,2.71,0v-8.3a1.356,1.356,0,0,0-2.71,0ZM113.4,99.289a3.22,3.22,0,0,1,2.541,1.1,3.586,3.586,0,0,1,1.016,2.541v8.3a3.22,3.22,0,0,1-1.1,2.541,3.684,3.684,0,0,1-5.081,0,3.52,3.52,0,0,1-1.1-2.541v-8.3a3.22,3.22,0,0,1,1.1-2.541A3.521,3.521,0,0,1,113.4,99.289Zm1.27,3.557a1.356,1.356,0,0,0-2.71,0v8.3a1.356,1.356,0,0,0,2.71,0Z" transform="translate(-96.8 -84.3)" fill="#fdb916"/>
        </g>
      </g>
    </g>
    <g id="Group_71" data-name="Group 71" transform="translate(4.488 37.261)">
      <g id="Group_58" data-name="Group 58" transform="translate(0 0)">
        <g id="Group_57" data-name="Group 57">
          <path id="Path_11" data-name="Path 11" d="M44.125,128.3a2.79,2.79,0,0,1,1.863.677,1.924,1.924,0,0,1,.762,1.524v5a1.924,1.924,0,0,1-.762,1.524,2.9,2.9,0,0,1-3.726,0A1.924,1.924,0,0,1,41.5,135.5v-5a1.924,1.924,0,0,1,.762-1.524A2.547,2.547,0,0,1,44.125,128.3Zm.932,2.117a.769.769,0,0,0-.254-.593,1.03,1.03,0,0,0-1.355,0,.769.769,0,0,0-.254.593v5a.769.769,0,0,0,.254.593,1.03,1.03,0,0,0,1.355,0,.769.769,0,0,0,.254-.593Z" transform="translate(-41.5 -128.3)" fill="#fdb916"/>
        </g>
      </g>
      <g id="Group_60" data-name="Group 60" transform="translate(11.009 0.085)">
        <g id="Group_59" data-name="Group 59">
          <path id="Path_12" data-name="Path 12" d="M57.041,128.4a2.788,2.788,0,0,1,2.032.677,2.257,2.257,0,0,1,.593,1.524v1.355a2.083,2.083,0,0,1-.847,1.694L60,137.631H58.226l-1.016-3.472h-1.1v3.472H54.5V128.4h2.541Zm.932,2.2c0-.508-.339-.762-.932-.762H56.024V132.8h1.016a.962.962,0,0,0,.677-.254.769.769,0,0,0,.254-.593Z" transform="translate(-54.5 -128.4)" fill="#fdb916"/>
        </g>
      </g>
      <g id="Group_62" data-name="Group 62" transform="translate(21.764)">
        <g id="Group_61" data-name="Group 61">
          <path id="Path_13" data-name="Path 13" d="M69.825,137.7a2.79,2.79,0,0,1-1.863-.677A1.924,1.924,0,0,1,67.2,135.5v-5a1.924,1.924,0,0,1,.762-1.524,2.9,2.9,0,0,1,3.726,0,1.924,1.924,0,0,1,.762,1.524v1.016H70.757v-1.1a.769.769,0,0,0-.254-.593,1.03,1.03,0,0,0-1.355,0,.769.769,0,0,0-.254.593v5a.769.769,0,0,0,.254.593,1.03,1.03,0,0,0,1.355,0,.769.769,0,0,0,.254-.593v-1.778h-.932V132.28H72.45V135.5a1.924,1.924,0,0,1-.762,1.524A2.79,2.79,0,0,1,69.825,137.7Z" transform="translate(-67.2 -128.3)" fill="#fdb916"/>
        </g>
      </g>
      <g id="Group_64" data-name="Group 64" transform="translate(32.349 0.085)">
        <g id="Group_63" data-name="Group 63">
          <path id="Path_14" data-name="Path 14" d="M81.817,135.514l-.423,2.117H79.7l1.863-9.231H83.85l1.778,9.231H83.934l-.423-2.117Zm.847-5-.593,3.641h1.186Z" transform="translate(-79.7 -128.4)" fill="#fdb916"/>
        </g>
      </g>
      <g id="Group_66" data-name="Group 66" transform="translate(43.951 0.085)">
        <g id="Group_65" data-name="Group 65">
          <path id="Path_15" data-name="Path 15" d="M95.178,128.4l2.2,6.182V128.4h1.609v9.231H97.3L95.009,131.7v5.928H93.4V128.4Z" transform="translate(-93.4 -128.4)" fill="#fdb916"/>
        </g>
      </g>
      <g id="Group_68" data-name="Group 68" transform="translate(55.299 0.085)">
        <g id="Group_67" data-name="Group 67">
          <path id="Path_16" data-name="Path 16" d="M108.409,137.631H106.8V128.4h1.609Z" transform="translate(-106.8 -128.4)" fill="#fdb916"/>
        </g>
      </g>
      <g id="Group_70" data-name="Group 70" transform="translate(62.582)">
        <g id="Group_69" data-name="Group 69">
          <path id="Path_17" data-name="Path 17" d="M118.025,137.7a2.79,2.79,0,0,1-1.863-.677,1.924,1.924,0,0,1-.762-1.524v-5a1.924,1.924,0,0,1,.762-1.524,2.9,2.9,0,0,1,3.726,0,1.924,1.924,0,0,1,.762,1.524v1.016h-1.694v-1.1a.769.769,0,0,0-.254-.593,1.03,1.03,0,0,0-1.355,0,.769.769,0,0,0-.254.593v5a.769.769,0,0,0,.254.593,1.03,1.03,0,0,0,1.355,0,.769.769,0,0,0,.254-.593v-1.27h1.694v1.27a1.923,1.923,0,0,1-.762,1.524A2.49,2.49,0,0,1,118.025,137.7Z" transform="translate(-115.4 -128.3)" fill="#fdb916"/>
        </g>
      </g>
    </g>
  </g>
</svg>
