<svg xmlns="http://www.w3.org/2000/svg" width="121.483" height="170.03" viewBox="0 0 121.483 170.03">
  <g id="Group_128" data-name="Group 128" transform="translate(0.002 0.002)">
    <path id="Path_48" data-name="Path 48" d="M69.03,357.654c-4.685-1.229-11.862,1.961-17.545-1.3-.3-.166,1.063-3.722-15.185,43.662l10.068-7.177a6.116,6.116,0,0,1,5.449-.864,6.026,6.026,0,0,1,3.888,3.921l3.589,12,15.983-46.52a25.278,25.278,0,0,0-6.247-3.722Z" transform="translate(-24.24 -237.868)" fill="#bca96a"/>
    <path id="Path_49" data-name="Path 49" d="M117.992,53.662c-4.32-6.081-4.951-8.074-4.253-15.95s.266-8.407-6.812-11.663-8.473-4.718-11.7-11.73c-3.19-7.011-4.054-7.476-11.663-6.779s-9.769,0-15.95-4.253-7.51-4.519-13.923,0-8.241,4.918-15.95,4.253-8.44-.266-11.7,6.779-4.752,8.506-11.7,11.73S6.844,30.1,7.541,37.713s0,9.836-4.253,15.95-4.519,7.51,0,13.923,4.951,8.074,4.253,15.95-.266,8.407,6.812,11.7,8.44,4.685,11.7,11.7,4.22,7.51,11.7,6.812a24.954,24.954,0,0,1,8.606.2c5.549,1.4,10.234,7.476,14.321,7.476s8.639-5.881,14.321-7.41,12.693,1.229,16.082-.7c3.356-1.927,4.453-9.4,8.673-13.59,4.187-4.187,11.6-5.25,13.59-8.673,1.96-3.389-.831-10.334.731-16.082s7.41-10.3,7.41-14.355a14.676,14.676,0,0,0-3.489-6.945ZM60.64,106.229a45.606,45.606,0,1,1,32.2-13.358,45.564,45.564,0,0,1-32.2,13.358Z" transform="translate(0 0)" fill="#bca96a"/>
    <path id="Path_50" data-name="Path 50" d="M235.625,356.078c-5.616,3.256-13.059,0-17.545,1.329A23.252,23.252,0,0,0,212,361.1l15.817,46.619,3.555-11.862a6.079,6.079,0,0,1,9.337-3.19l10.1,7.144C234.562,352.522,235.924,356.078,235.625,356.078Z" transform="translate(-141.558 -237.72)" fill="#bca96a"/>
    <g id="Group_127" data-name="Group 127" transform="translate(25.6 31.282)">
      <g id="Group_126" data-name="Group 126">
        <path id="Path_51" data-name="Path 51" d="M136.312,95.761l-2.991-1.3a3.888,3.888,0,0,0-5.084,2.027l-18.209,42.067L83.744,127.194a3.888,3.888,0,0,0-5.084,2.027l-1.3,2.991a3.888,3.888,0,0,0,2.027,5.084l29.673,12.826a.252.252,0,0,0,.133.066l2.991,1.263a3.723,3.723,0,0,0,2.924,0h0a3.7,3.7,0,0,0,2.127-1.994l1.3-2.991a.2.2,0,0,0,.033-.133l19.671-45.456A3.793,3.793,0,0,0,136.312,95.761Z" transform="translate(-77.048 -94.148)" fill="#bca96a"/>
      </g>
    </g>
  </g>
</svg>
