<svg id="Group_131" data-name="Group 131" xmlns="http://www.w3.org/2000/svg" width="193.081" height="146.304" viewBox="0 0 193.081 146.304">
  <path id="Path_52" data-name="Path 52" d="M328.445,89.216l-.029.175a3.67,3.67,0,0,0,.816,2.827,3.549,3.549,0,0,0,.321-4.168l-.321-.35-.321.35A3.377,3.377,0,0,0,328.445,89.216Z" transform="translate(-232.677 -62.141)" fill="none"/>
  <path id="Path_53" data-name="Path 53" d="M66.7,267.658l.087-.058Z" transform="translate(-47.261 -189.61)" fill="none"/>
  <path id="Path_54" data-name="Path 54" d="M306.734,381.5l-4.634,2.885,4.634,2.856Z" transform="translate(-214.055 -270.315)" fill="none"/>
  <path id="Path_55" data-name="Path 55" d="M63.724,267.658l.087-.058-.087.058a7.719,7.719,0,0,0-1.224.758l1.224-.758Z" transform="translate(-44.285 -189.61)" fill="#82bfab"/>
  <path id="Path_56" data-name="Path 56" d="M197.505,328.512a57.636,57.636,0,0,1-6.674-6.412L166.7,337.051l8.51,5.275,2.332-1.457a7.8,7.8,0,0,1,1.69-1.049Z" transform="translate(-118.117 -228.226)" fill="#fdb916"/>
  <path id="Path_57" data-name="Path 57" d="M129.171,254.227a53.572,53.572,0,0,1-3.089-8.627L93.353,265.855l-.991.612-.262.175.291-.146a45.33,45.33,0,0,0,6.383,6.587l1.282-.816,2.39-1.486Z" transform="translate(-65.258 -174.022)" fill="#fdb916"/>
  <path id="Path_58" data-name="Path 58" d="M59.134,53.509,84.547,37.771V37.8l10.958-6.761.408-.262.67-.7a3.456,3.456,0,0,1-.816-2.827l.029-.175a4.538,4.538,0,0,1,.437-1.195l.321-.35a3.6,3.6,0,0,1,4.634-.845l.117.058L132.577,44.27l6.266,3.934a7.9,7.9,0,0,0,12.211-8.277,7.763,7.763,0,0,0-3.643-4.984l-.233-.146L108.038,10.346l-.029.029-.087-.058a54.232,54.232,0,0,0-11.366-5.3,55.318,55.318,0,0,0-29.407-1.72A53.633,53.633,0,0,0,60.5,5.159a54.29,54.29,0,0,0-5.741,2.39,16.231,16.231,0,0,1-11.8-2.1L34.244,0,0,55.345l7.927,4.9,4.925,3.06a16.379,16.379,0,0,1,4.984,8.481l.146.758c.2,1.166.525,2.3.816,3.439.2.7.408,1.37.641,2.04l.087-.058Z" fill="#fdb916"/>
  <path id="Path_59" data-name="Path 59" d="M195.214,0l-8.743,5.421a16.256,16.256,0,0,1-11.8,2.1,58.127,58.127,0,0,0-5.741-2.39,57.076,57.076,0,0,0-6.616-1.865A55.335,55.335,0,0,0,132.9,4.984a55.028,55.028,0,0,1,11.366,5.3l.087.058.029-.029,39.17,24.452.233.146a7.9,7.9,0,1,1-8.568,13.261l-6.266-3.934L137.683,24.714l-.117-.058a3.6,3.6,0,0,0-4.634.845l.321.35a3.592,3.592,0,0,1-.321,4.168l-.67.7-.408.262L120.9,37.742v-.029L95.483,53.451,55.876,77.99l-.087.058-1.224.758a8.151,8.151,0,0,0,8.6,13.785l.262-.175.991-.612L97.144,71.549a56.527,56.527,0,0,0,3.089,8.627l-26.7,16.583-2.39,1.486A8.152,8.152,0,1,0,82.076,110.34l.117.146,2.71-1.661,24.131-14.951a53.231,53.231,0,0,0,6.674,6.412L97.464,111.593a7.155,7.155,0,0,0-1.69,1.049A8.038,8.038,0,0,0,92.656,119a8.106,8.106,0,0,0,14.077,5.508l.233.321,1.953-1.195,15.446-9.559L129,111.214v-4.109l-.029-.787.029-.787a8.15,8.15,0,0,1,16.262.7v24.627l8.976-5.567V94.252l-.029-.379.029-.379a8.06,8.06,0,0,1,2.244-5.217,8.255,8.255,0,0,1,5.887-2.536A8.153,8.153,0,0,1,170.5,93.9l-.029.379h.029v20.955l8.976-5.567V88.511l.058-.758v-.991h.146a8.114,8.114,0,0,1,15.854,0h.146v1.253l.029.321.029.175-.029.379V99.207A45.75,45.75,0,0,0,211.448,72.54l.146-.758a16.076,16.076,0,0,1,4.984-8.481l4.925-3.06,7.927-4.9Z" transform="translate(-36.349)" fill="#f09022"/>
  <path id="Path_60" data-name="Path 60" d="M420.792,302.839h-.029l.029-.379a8.134,8.134,0,0,0-2.244-5.625,8.254,8.254,0,0,0-5.887-2.536,8.027,8.027,0,0,0-5.887,2.536,8.209,8.209,0,0,0-2.244,5.217l-.029.379.029.379v30.98l.087-.058a8.078,8.078,0,0,0,16.029-.087h.058v-.67l.029-.35-.029-.35v-8.452l.058-.029V302.839Z" transform="translate(-286.612 -208.529)" fill="#fdb916"/>
  <path id="Path_61" data-name="Path 61" d="M285.443,344.948v-.175a8.15,8.15,0,0,0-16.262-.7l-.029.787.029.787V355.5l-4.634-2.856L249.1,362.2l8.51,5.275,2.332-1.457.175-.117,9.035-5.6v19.148l.437-.262a8.062,8.062,0,0,0,15.709-1.428h.058v-.67l.029-.35-.029-.35v-6.965l.029-.029V355.032Z" transform="translate(-176.502 -238.571)" fill="#fdb916"/>
  <path id="Path_62" data-name="Path 62" d="M507.463,283.931l-.029-.175-.029-.321v-1.253h-.146a8.125,8.125,0,0,0-7.927-6.383,7.786,7.786,0,0,0-3.468.816,8.141,8.141,0,0,0-4.459,5.567h-.146v.991l-.058.758V305.09l.058-.029v1.312l-.029.35.029.35v.67h.058a8.072,8.072,0,0,0,16.029,0h.058v-.67l.029-.35-.029-.35V294.656l.029-.029V284.31Z" transform="translate(-348.044 -195.42)" fill="#fdb916"/>
  <path id="Path_63" data-name="Path 63" d="M287.036,423.441V417.7L278,423.3l-.175.117a8.132,8.132,0,0,0,4.6,14.834,8.22,8.22,0,0,0,4.634-1.428V423.441Z" transform="translate(-194.357 -295.965)" fill="#f09022"/>
</svg>
