<svg xmlns="http://www.w3.org/2000/svg" width="41.5" height="41.5" viewBox="0 0 41.5 41.5">
  <g id="pinterest-footer" transform="translate(-0.05 -0.05)">
    <path id="XMLID_5_" d="M20.8,40.8h0a19.991,19.991,0,0,1-20-20h0a19.991,19.991,0,0,1,20-20h0a19.991,19.991,0,0,1,20,20h0A19.991,19.991,0,0,1,20.8,40.8Z" transform="translate(0 0)" fill="none" stroke="#bca96a" stroke-miterlimit="10" stroke-width="1.5"/>
    <path id="XMLID_2_" d="M13.7,22.626a.5.5,0,0,0,.7-.327c.1-.218.2-.871.3-1.089.1-.327.1-.435-.2-.762a4.328,4.328,0,0,1-.9-2.722c0-3.592,2.5-6.75,6.4-6.75,3.5,0,5.4,2.286,5.4,5.443,0,4.028-1.7,7.512-4.1,7.512a2.056,2.056,0,0,1-2-2.722A29.369,29.369,0,0,0,20.4,16.2c0-1.2-.6-2.068-1.8-2.068-1.4,0-2.5,1.524-2.5,3.7a6.655,6.655,0,0,0,.4,2.286s-1.4,6.532-1.7,7.729a14.6,14.6,0,0,0,0,5.334c0,.218.2.218.3.109a15.468,15.468,0,0,0,2.3-4.572c.2-.653.9-3.919.9-3.919a3.657,3.657,0,0,0,3.2,1.742c4.2,0,7-4.137,7-9.689A8.022,8.022,0,0,0,20.3,8.8,8.909,8.909,0,0,0,11,17.618C11,19.686,11.9,21.864,13.7,22.626Z" transform="translate(0.995 0)" fill="#bca96a"/>
  </g>
</svg>
